<?xml version="1.0" encoding="UTF-8" standalone="no"?>
<!-- Created with Inkscape (http://www.inkscape.org/) -->

<svg
   width="210mm"
   height="297mm"
   viewBox="0 0 210 297"
   version="1.1"
   id="svg4921"
   xml:space="preserve"
   inkscape:version="1.2.1 (9c6d41e410, 2022-07-14)"
   sodipodi:docname="Earth.svg"
   xmlns:inkscape="http://www.inkscape.org/namespaces/inkscape"
   xmlns:sodipodi="http://sodipodi.sourceforge.net/DTD/sodipodi-0.dtd"
   xmlns:xlink="http://www.w3.org/1999/xlink"
   xmlns="http://www.w3.org/2000/svg"
   xmlns:svg="http://www.w3.org/2000/svg"><sodipodi:namedview
     id="namedview4923"
     pagecolor="#ffffff"
     bordercolor="#000000"
     borderopacity="0.25"
     inkscape:showpageshadow="2"
     inkscape:pageopacity="0.0"
     inkscape:pagecheckerboard="0"
     inkscape:deskcolor="#d1d1d1"
     inkscape:document-units="mm"
     showgrid="false"
     inkscape:zoom="1.4142136"
     inkscape:cx="301.93459"
     inkscape:cy="506.28845"
     inkscape:window-width="1920"
     inkscape:window-height="1129"
     inkscape:window-x="-8"
     inkscape:window-y="-8"
     inkscape:window-maximized="1"
     inkscape:current-layer="g15058" /><defs
     id="defs4918"><inkscape:path-effect
       effect="powerclip"
       id="path-effect20643"
       is_visible="true"
       lpeversion="1"
       inverse="true"
       flatten="false"
       hide_clip="false"
       message="Füllregel Gerade-Ungerade im &lt;b&gt;Füllung und Kontur&lt;/b&gt;-Dialog verwenden, wenn das Anwenden des Ausschnitts mit nachfolgendem Umwandeln in Pfade kein Ergebnis bringt" /><inkscape:path-effect
       effect="powermask"
       id="path-effect11271"
       is_visible="true"
       lpeversion="1"
       uri="#mask-powermask-path-effect11271"
       invert="false"
       hide_mask="false"
       background="true"
       background_color="#ffffffff" /><clipPath
       clipPathUnits="userSpaceOnUse"
       id="clipPath8256"><use
         x="0"
         y="0"
         xlink:href="#g8252"
         id="use8258" /></clipPath><filter
       id="mask-powermask-path-effect8276_inverse"
       inkscape:label="filtermask-powermask-path-effect8276"
       style="color-interpolation-filters:sRGB"
       height="100"
       width="100"
       x="-50"
       y="-50"><feColorMatrix
         id="mask-powermask-path-effect8276_primitive1"
         values="1"
         type="saturate"
         result="fbSourceGraphic" /><feColorMatrix
         id="mask-powermask-path-effect8276_primitive2"
         values="-1 0 0 0 1 0 -1 0 0 1 0 0 -1 0 1 0 0 0 1 0 "
         in="fbSourceGraphic" /></filter><mask
       maskUnits="userSpaceOnUse"
       id="mask-powermask-path-effect11271"><ellipse
         style="fill:#0000ff;fill-opacity:1;stroke:#000000;stroke-width:0"
         id="ellipse11269"
         cx="144.1599"
         cy="242.04623"
         rx="50.145142"
         ry="49.867054" /></mask><filter
       id="mask-powermask-path-effect11271_inverse"
       inkscape:label="filtermask-powermask-path-effect11271"
       style="color-interpolation-filters:sRGB"
       height="100"
       width="100"
       x="-50"
       y="-50"><feColorMatrix
         id="mask-powermask-path-effect11271_primitive1"
         values="1"
         type="saturate"
         result="fbSourceGraphic" /><feColorMatrix
         id="mask-powermask-path-effect11271_primitive2"
         values="-1 0 0 0 1 0 -1 0 0 1 0 0 -1 0 1 0 0 0 1 0 "
         in="fbSourceGraphic" /></filter><clipPath
       clipPathUnits="userSpaceOnUse"
       id="clipPath20639"><ellipse
         style="display:none;fill:#aaeeff;fill-opacity:0.996154;stroke:#000000;stroke-width:0"
         id="ellipse20641"
         cx="138.81979"
         cy="226.00311"
         rx="49.477734"
         ry="49.199646"
         d="m 188.29753,226.00311 a 49.477734,49.199646 0 0 1 -49.47774,49.19965 49.477734,49.199646 0 0 1 -49.47773,-49.19965 49.477734,49.199646 0 0 1 49.47773,-49.19964 49.477734,49.199646 0 0 1 49.47774,49.19964 z" /><path
         id="lpe_path-effect20643"
         style="fill:#aaeeff;fill-opacity:0.996154;stroke:#000000;stroke-width:0"
         class="powerclip"
         d="M 95.193195,176.29361 H 204.14866 V 284.6929 H 95.193195 Z m 93.104335,49.7095 a 49.477734,49.199646 0 0 0 -49.47774,-49.19964 49.477734,49.199646 0 0 0 -49.47773,49.19964 49.477734,49.199646 0 0 0 49.47773,49.19965 49.477734,49.199646 0 0 0 49.47774,-49.19965 z" /></clipPath></defs><g
     id="g15058"><ellipse
       style="fill:#aaeeff;fill-opacity:0.996154;stroke:#000000;stroke-width:0"
       id="path5094"
       cx="82.615967"
       cy="142.89861"
       rx="49.477734"
       ry="49.199646" /><path
       style="fill:#8dd35f;fill-opacity:0.65374;stroke:#000000;stroke-width:0;stroke-opacity:0.412742"
       d="m 95.78694,95.557315 -0.72303,2.53058 1.77976,2.669625 -4.44938,1.33481 -4.22691,-0.88987 -3.33704,0.6674 -1.55728,2.66963 -2.66963,1.33481 c -0.370772,2.10992 0.145066,2.78438 0.865201,3.12806 l 0.867898,-0.18429 0.877541,-0.72525 c 0.23365,0.64418 0.67353,0.92715 0.95597,1.41905 0.28245,0.49189 0.52545,0.95673 0.444,1.02079 l 1.54996,-0.64042 c 0.0537,-0.82109 0.0478,-1.67139 1.21182,-2.3955 l -0.93653,-0.35779 c -0.4158,-0.35806 -0.73901,-0.78398 -0.2686,-1.13223 0.43351,-0.32093 1.1092,-1.14172 1.2838,-1.8925 l 1.60278,-0.24214 -0.88987,2.66963 0.88987,3.78197 -1.77975,0.88988 -1.55728,-0.22247 -1.33482,0.22247 -0.44493,-0.22247 c 0.43454,-0.769 -0.34743,-1.13249 -0.61179,-1.66852 -0.362364,-0.54095 -0.878239,-0.007 -1.334817,0.11124 0.14539,0.78385 -0.286554,1.37525 0.55617,2.39154 l -2.113454,0.0556 -2.892097,2.69743 -3.19799,0.86207 1.307005,1.02892 0.444936,1.80756 -0.472747,1.08454 -4.365953,-0.41714 -1.446048,3.78198 0.111236,1.47386 h 1.167961 l 0.58398,0.88987 -0.736243,2.07862 h -1.57309 l -1.022512,1.73041 -0.393274,1.80906 -2.752913,1.02251 -3.932732,5.34851 0.550582,2.4383 -1.258474,3.38215 0.235963,2.83156 1.966367,2.28099 1.17982,2.20233 3.539461,3.3035 3.38215,-1.10117 1.415783,1.17982 5.977755,-1.57309 1.494438,2.04502 2.438294,-0.15731 1.337133,1.65175 -1.10117,2.67426 2.67426,4.01138 1.33713,5.0339 -1.57309,4.64063 2.35964,4.40466 2.20233,5.97775 1.49443,0.55059 5.11256,-1.33713 4.56197,-3.53947 0.78654,-2.12367 2.04503,-0.70789 0.47192,-2.12368 -0.39327,-1.33713 5.19121,-3.38215 -0.23597,-7.86546 5.8991,-9.28125 2.35964,-7.55085 -5.19121,2.20233 -0.94385,-1.96637 -8.88798,-11.95551 1.02251,-0.47192 7.00027,8.65201 1.57309,3.53946 5.0339,-3.4608 2.98888,-5.34852 -0.31462,-2.35964 -1.88771,-1.02251 -0.55059,-1.10117 -0.8652,2.12368 -1.17982,0.31462 -3.77542,-4.24736 1.17982,-0.94385 1.49444,2.20233 1.96636,0.62924 0.78655,-1.25848 1.41578,1.17982 3.93274,-1.10116 2.98887,3.06753 0.47193,-1.49444 c 0.4122,4.28926 2.00892,5.50183 3.68723,10.82653 0.72387,0.67258 1.13748,0.68032 1.34272,0.24155 -0.38588,-2.43513 -0.94652,-4.22686 -1.1574,-6.64212 -0.21099,-2.4164 -0.73871,-5.7973 -0.61118,-8.28086 l 2.49555,3.67537 c -1.14963,-3.85056 -2.62473,-7.70112 -4.66276,-11.55168 -2.13469,-3.88327 -4.90249,-7.57335 -8.59286,-11.23468 -2.45815,-2.43176 -5.97704,-5.37417 -9.92768,-7.50833 -3.93868,-2.112795 -6.50195,-3.531725 -10.59509,-4.532775 z"
       id="path5766"
       sodipodi:nodetypes="cccccccccccsccccscccccccccccccccccccccccccccccccccccccccccccccccccccccccccccccccccccccccccccccccccsccccccc" /><g
       id="g8254"
       clip-path="url(#clipPath8256)"
       transform="translate(-16.83798,-10.476965)"><g
         inkscape:label="Clip"
         id="g8252"><path
           style="fill:#aaeeff;fill-opacity:1;stroke:#000000;stroke-width:0"
           d="m 89.86295,135.20736 -1.442026,0.45325 0.891444,0.92321 2.63493,-0.0787 2.241658,-1.02251 6.528334,-0.31462 -0.4326,2.71359 3.77543,1.45511 3.30349,1.53377 0.8652,-0.78655 -0.55058,-0.94386 1.33713,-0.62923 1.57309,0.58991 2.5956,0.35394 1.69108,0.31462 1.45511,-0.78655 2.0057,0.23597 0.1573,-4.79794 -2.35963,0.94386 -1.49444,-0.82587 -0.58991,0.74722 -1.41579,-0.66857 -1.25847,-2.75291 -1.80906,-0.11798 -0.90453,0.58991 2.67426,2.24165 v 0.90453 l -1.53377,-0.51125 -0.27529,0.82587 -1.37645,-1.45511 -1.1405,-1.49444 -0.70789,-1.84838 -1.65174,-0.7079 -1.45512,-0.94385 -0.94385,-1.25848 -0.66857,0.39328 0.0787,1.02251 0.78654,0.31462 1.1405,1.41578 0.82587,-0.0787 -0.0393,0.55059 1.65175,0.74722 -0.0393,0.51125 -1.21915,-0.66856 -0.0787,0.51125 0.62924,0.51126 -1.21915,1.2978 -0.23596,0.94386 c 0,0 -2.35964,-1.02251 -2.163,-0.94386 0.19663,0.0787 0.23596,-0.58991 0.23596,-0.58991 l 2.00569,-0.0393 0.4326,-0.55058 -0.74722,-0.98318 -1.25847,-0.66857 -1.76973,-1.45511 -0.51125,-0.8652 -0.786552,-0.35395 -1.651746,1.25848 -1.455113,-0.4326 -0.668565,0.39327 0.235966,0.70789 -1.651749,0.86521 -1.101164,0.98318 0.393271,0.82587 -0.943856,0.90453 -0.943856,0.39327 z"
           id="path7217"
           sodipodi:nodetypes="ccccccccccccccccccccccccccccccccccccccccccccccccccccccccccccccccccc" /></g></g><path
       style="fill:#aaeeff;fill-opacity:1;stroke:#000000;stroke-width:0"
       d="m 95.99213,116.23569 -0.82587,1.41578 -0.31462,2.163 0.94385,0.74722 1.41579,0.15731 1.37645,-0.98318 1.06184,0.0393 0.82588,0.31462 1.41578,0.11798 1.33713,-0.4326 0.15731,-0.98318 -2.51695,-1.10117 -1.33713,-0.62924 -1.41578,0.98319 -1.17982,-1.10117 0.70789,-0.39327 1.06184,0.27529 1.06183,-0.0787 -0.0786,-1.33713 -1.80906,1.02251 -1.33713,0.11799 z"
       id="path8227" /><path
       style="fill:#aaeeff;fill-opacity:1;stroke:#000000;stroke-width:0"
       d="m 106.09925,114.42663 -1.10116,2.04502 1.25847,1.49444 1.76973,1.41579 0.47193,2.28098 2.08435,0.58991 1.21915,-0.47193 -1.21915,-2.28098 c 0,0 -0.94386,-0.82588 -0.74722,-0.94386 0.19664,-0.11798 -0.35395,-0.90453 -0.35395,-0.90453 l -1.17982,-0.27529 -1.25847,-1.33713 0.47193,-0.94386 -0.51126,-0.98318 z"
       id="path8229" /><path
       style="fill:#97dc96;fill-opacity:1;stroke:#000000;stroke-width:0;stroke-opacity:0.412742"
       d="m 46.24547,176.12168 -1.103577,-3.56926 -0.786548,-1.69107 0.786548,-0.82587 1.258474,0.27529 0.471927,-2.63493 -1.061836,-4.32601 1.494438,-2.08435 -0.353947,-3.81475 -1.061839,-0.55058 -1.769729,-1.96637 -2.163003,-1.17982 -0.707892,-1.45511 -1.376456,-1.17982 -0.943856,-1.21915 0.275291,-1.17982 -0.314618,-1.02251 -0.157308,-1.2978 -1.179822,-2.20233 -0.786546,-0.39327 -0.353946,-1.29781 -0.432602,-1.80905 -0.03932,-2.08435 -2.280985,-2.10401 c -0.312321,2.24166 -0.342095,4.46365 -0.393275,6.70531 -0.119406,9.76618 2.776095,18.24941 8.160421,26.76225 3.208252,4.6467 3.048029,4.2677 4.820006,6.14519 z"
       id="path11004"
       sodipodi:nodetypes="ccccccccccccccccccccccccccc" /><path
       style="fill:#97dc96;fill-opacity:1;stroke:#000000;stroke-width:0;stroke-opacity:0.412742"
       d="m 40.142958,117.81594 1.979862,-1.67281 1.966367,-2.5956 1.730402,-0.62924 1.297802,-1.49444 h 1.022512 l -1.022512,0.74722 2.595605,-0.23596 0.511254,-0.98319 -0.786548,-0.70789 1.21915,-0.98318 0.03932,-0.98318 0.668565,-0.31462 0.825876,0.78654 1.730401,-0.0786 -3.185514,1.7304 0.393274,1.2978 1.219147,0.11798 1.061839,-1.84838 -0.07865,-0.78655 2.04502,-1.88771 0.353946,-1.2978 2.556277,-2.94955 -1.258475,0.11798 1.887712,-2.32031 -2.79224,1.65175 -1.769729,0.98318 -2.320314,1.17982 3.146187,-2.39897 4.837261,-3.067525 3.736096,-0.70789 -4.247351,2.949545 0.157308,0.55058 3.067534,-1.65174 1.809057,-0.629235 0.786546,-0.98318 3.146186,-1.92704 2.870896,-0.2753 -0.471929,1.1405 -6.921609,4.011375 -2.398969,2.55628 0.47193,1.02251 5.545153,-2.87089 4.208023,-0.66857 2.359642,-0.78654 3.618113,-3.028205 1.691077,-1.06184 -0.668565,-0.8652 h -3.028204 l 0.8652,-0.74722 -1.691076,-0.27529 -1.157771,-0.47868 c -2.999155,0.64166 -9.723039,1.87889 -16.966369,6.434205 -1.960975,1.1888 -3.81382,2.59876 -5.702052,4.04217 -4.379419,3.69238 -8.264421,8.17724 -10.952663,12.87249 z"
       id="path11006"
       sodipodi:nodetypes="ccccccccccccccccccccccccccccccccccccccccccccccccccccccc" /><path
       style="fill:#97d26e;fill-opacity:1;stroke:#000000;stroke-width:0;stroke-opacity:0.412742"
       d="m 74.165462,110.39558 c -0.648192,-10e-4 -0.767083,0.30903 -0.792306,0.67433 -0.328784,-0.18183 -0.646259,-0.22794 -0.938096,0.0336 -0.21122,0.14129 -0.157922,0.33548 0,0.55059 l 0.05916,0.2451 c -0.694505,0.0703 -0.422089,0.34244 -0.678688,0.55873 l 0.29298,0.56349 1.888123,-0.3319 c 0.467551,-0.31801 0.565316,-1.05863 0.798064,-1.64499 l 0.08878,-0.51941 z"
       id="path11008"
       sodipodi:nodetypes="ccccccccccc" /><path
       style="fill:#97d26e;fill-opacity:1;stroke:#000000;stroke-width:0;stroke-opacity:0.412742"
       d="m 74.499744,114.15134 c 0.616257,-0.25752 1.25835,-0.29019 1.905703,-0.32661 0.647352,-0.0364 1.299966,-0.0766 1.937265,-0.34911 l -0.382162,-0.44511 c 0.243826,-0.10969 0.528055,-0.1655 0.668565,-0.41294 l -0.07866,-0.4326 -0.825873,-0.059 -0.07865,-0.90453 -0.550582,-0.27529 -0.117983,-0.72755 -0.275291,-0.2163 c 0.272424,-0.35411 0.659808,-0.75421 0.766881,-1.04218 -0.186043,-0.24502 -0.663124,-0.13815 -1.120827,-0.0786 0.463308,-0.20121 0.835152,-0.45958 1.002847,-0.84554 -0.325003,-0.0288 -0.670146,-0.0374 -1.177844,0.11659 l -0.198203,0.16841 c -0.707206,0.44323 -0.768107,0.59537 -0.275702,0.24592 -0.504872,0.27519 -0.630795,0.31519 -0.648653,0.53824 -0.01786,0.22305 0.07235,0.62915 -2.52e-4,0.85788 0.05306,0.1609 0.128673,0.33307 0.255627,0.53092 l 0.388504,-0.0518 c -0.246637,0.35469 -0.28465,0.44861 -0.396649,0.635 l 0.587118,-0.0244 0.146199,0.81057 -0.78416,-0.0518 -0.07866,0.19664 -0.05899,0.25563 0.393274,0.059 0.01966,0.25563 -0.432601,0.11897 -0.471927,0.19563 -0.05899,0.17697 0.962121,0.17459 -0.01,0.0824 -0.322932,0.15592 c -0.239785,-0.018 -0.443943,0.0708 -0.609574,0.27529 l -0.550582,0.41293 c 0.157883,-0.006 0.492842,0.0581 0.471934,-0.0197 z"
       id="path11010"
       sodipodi:nodetypes="cscccccccccccccccsccccccccccccccccccccc" /><path
       style="fill:#97d26e;fill-opacity:1;stroke:#000000;stroke-width:0;stroke-opacity:0.412742"
       d="m 71.31423,103.31666 c 0,0 -0.432599,0.90453 -0.452263,1.00285 -0.01966,0.0983 0.609573,0.68822 0.727554,0.70789 0.117983,0.0197 1.317466,-0.27529 1.49444,-0.29496 0.176972,-0.0196 1.376455,-0.35394 1.376455,-0.35394 l -0.03933,-0.94386 -1.120828,-0.13764 -0.648901,0.23596 -0.58991,-0.13765 0.01966,-0.31461 z"
       id="path11012" /><path
       style="fill:#97dc96;fill-opacity:1;stroke:#000000;stroke-width:0;stroke-opacity:0.412742"
       d="m 109.08813,174.32215 -0.35395,-0.62923 0.19664,-0.78655 v -0.39327 l 0.27529,-0.82588 0.31462,-0.0786 0.70789,-1.17982 -0.0393,-1.57309 0.70789,-1.33713 1.10116,-0.2753 0.78655,-0.8652 0.90453,-1.14049 0.74722,-1.10116 0.31462,-0.2753 0.27529,0.86521 -0.0787,1.65174 -0.39327,0.8652 -0.82587,1.5731 -2.35964,4.12937 -0.62924,0.90453 -0.78655,0.35394 z"
       id="path2274" /><g
       id="g19825"
       transform="matrix(0.30061379,0,0,0.30061379,40.535821,77.563321)"><path
         id="path13076"
         style="fill:#ff5454;fill-opacity:1;stroke:#ed7d81;stroke-width:0"
         d="m 163.38021,98.226562 c 0,5.954608 -10.78178,30.625518 -10.78178,30.625518 0,0 -10.78177,-24.67091 -10.78177,-30.625518 0,-5.954607 4.82716,-10.781769 10.78177,-10.78177 5.95461,-5e-6 10.78178,4.827159 10.78178,10.78177 z"
         sodipodi:nodetypes="scsss" /><circle
         style="fill:#ffffff;fill-opacity:1;stroke:#ed7d81;stroke-width:0;stroke-opacity:1"
         id="path19769"
         cx="152.59843"
         cy="97.895828"
         r="4.2333331" /></g><path
       style="fill:#006680;fill-opacity:0.569231;stroke:#000000;stroke-width:0"
       id="path5094-4"
       clip-path="url(#clipPath20639)"
       transform="translate(-67.054963,-87.594643)"
       d="m 199.14866,230.49326 a 49.477734,49.199646 0 0 1 -49.47773,49.19964 49.477734,49.199646 0 0 1 -49.47773,-49.19964 49.477734,49.199646 0 0 1 49.47773,-49.19965 49.477734,49.199646 0 0 1 49.47773,49.19965 z"
       sodipodi:type="arc"
       sodipodi:ry="49.199646"
       sodipodi:rx="49.477734"
       sodipodi:cy="230.49326"
       sodipodi:cx="149.67093"
       inkscape:path-effect="#path-effect20643"
       inkscape:label="path5094-4" /></g></svg>
