<?xml version="1.0" encoding="UTF-8" standalone="no"?>
<!-- Created with Inkscape (http://www.inkscape.org/) -->

<svg
   width="210mm"
   height="297mm"
   viewBox="0 0 210 297"
   version="1.1"
   id="svg4921"
   xml:space="preserve"
   inkscape:version="1.2.1 (9c6d41e410, 2022-07-14)"
   sodipodi:docname="Earth.svg"
   xmlns:inkscape="http://www.inkscape.org/namespaces/inkscape"
   xmlns:sodipodi="http://sodipodi.sourceforge.net/DTD/sodipodi-0.dtd"
   xmlns:xlink="http://www.w3.org/1999/xlink"
   xmlns="http://www.w3.org/2000/svg"
   xmlns:svg="http://www.w3.org/2000/svg"><sodipodi:namedview
     id="namedview4923"
     pagecolor="#ffffff"
     bordercolor="#000000"
     borderopacity="0.25"
     inkscape:showpageshadow="2"
     inkscape:pageopacity="0.0"
     inkscape:pagecheckerboard="0"
     inkscape:deskcolor="#d1d1d1"
     inkscape:document-units="mm"
     showgrid="false"
     inkscape:zoom="1.1893044"
     inkscape:cx="395.6094"
     inkscape:cy="480.9534"
     inkscape:window-width="1920"
     inkscape:window-height="1129"
     inkscape:window-x="-8"
     inkscape:window-y="-8"
     inkscape:window-maximized="1"
     inkscape:current-layer="svg4921" /><defs
     id="defs4918"><inkscape:path-effect
       effect="powermask"
       id="path-effect11271"
       is_visible="true"
       lpeversion="1"
       uri="#mask-powermask-path-effect11271"
       invert="false"
       hide_mask="false"
       background="true"
       background_color="#ffffffff" /><clipPath
       clipPathUnits="userSpaceOnUse"
       id="clipPath8256"><use
         x="0"
         y="0"
         xlink:href="#g8252"
         id="use8258" /></clipPath><filter
       id="mask-powermask-path-effect8276_inverse"
       inkscape:label="filtermask-powermask-path-effect8276"
       style="color-interpolation-filters:sRGB"
       height="100"
       width="100"
       x="-50"
       y="-50"><feColorMatrix
         id="mask-powermask-path-effect8276_primitive1"
         values="1"
         type="saturate"
         result="fbSourceGraphic" /><feColorMatrix
         id="mask-powermask-path-effect8276_primitive2"
         values="-1 0 0 0 1 0 -1 0 0 1 0 0 -1 0 1 0 0 0 1 0 "
         in="fbSourceGraphic" /></filter><mask
       maskUnits="userSpaceOnUse"
       id="mask-powermask-path-effect11271"><path
         id="mask-powermask-path-effect11271_box"
         style="fill:#ffffff;fill-opacity:1"
         d="M 102.35846,196.96339 H 204.64874 V 298.6975 H 102.35846 Z" /><ellipse
         style="fill:#0000ff;fill-opacity:1;stroke:#000000;stroke-width:0"
         id="ellipse11269"
         cx="144.1599"
         cy="242.04623"
         rx="50.145142"
         ry="49.867054"
         d="M 194.30504,242.04623 A 50.145142,49.867054 0 0 1 144.1599,291.91329 50.145142,49.867054 0 0 1 94.014755,242.04623 50.145142,49.867054 0 0 1 144.1599,192.17918 50.145142,49.867054 0 0 1 194.30504,242.04623 Z" /></mask><filter
       id="mask-powermask-path-effect11271_inverse"
       inkscape:label="filtermask-powermask-path-effect11271"
       style="color-interpolation-filters:sRGB"
       height="100"
       width="100"
       x="-50"
       y="-50"><feColorMatrix
         id="mask-powermask-path-effect11271_primitive1"
         values="1"
         type="saturate"
         result="fbSourceGraphic" /><feColorMatrix
         id="mask-powermask-path-effect11271_primitive2"
         values="-1 0 0 0 1 0 -1 0 0 1 0 0 -1 0 1 0 0 0 1 0 "
         in="fbSourceGraphic" /></filter></defs><g
     id="g15058"><ellipse
       style="fill:#aaeeff;fill-opacity:1;stroke:#000000;stroke-width:0"
       id="path5094"
       cx="100.24257"
       cy="154.00583"
       rx="50.145142"
       ry="49.867054" /><path
       style="fill:#004759;fill-opacity:0.534626;stroke:#000000;stroke-width:0"
       id="path5094-9"
       mask="url(#mask-powermask-path-effect11271)"
       inkscape:path-effect="#path-effect11271"
       sodipodi:type="arc"
       sodipodi:cx="153.5036"
       sodipodi:cy="247.83044"
       sodipodi:rx="50.145142"
       sodipodi:ry="49.867054"
       d="m 203.64874,247.83044 a 50.145142,49.867054 0 0 1 -50.14514,49.86706 50.145142,49.867054 0 0 1 -50.14514,-49.86706 50.145142,49.867054 0 0 1 50.14514,-49.86705 50.145142,49.867054 0 0 1 50.14514,49.86705 z"
       transform="translate(-53.615023,-94.104377)" /><path
       style="fill:#8dd35f;fill-opacity:0.65374;stroke:#000000;stroke-width:0;stroke-opacity:0.412742"
       d="m 112.62492,105.64496 -0.72303,2.9199 1.77976,2.66963 -4.44938,1.33481 -4.22691,-0.88987 -3.33704,0.6674 -1.55728,2.66963 -2.66963,1.33481 v 2.8921 l 2.224691,0.44494 0.444939,-1.33482 1.55728,2.8921 2.00222,-1.11234 0.44494,-2.00223 -0.44494,-1.55728 0.44494,-2.00222 1.77975,-0.22247 -0.88987,2.66963 0.88987,3.78197 -1.77975,0.88988 -1.55728,-0.22247 -1.33482,0.22247 -0.44493,-0.22247 -0.61179,-1.66852 -1.334817,0.11124 0.55617,2.39154 -2.113454,0.0556 -2.892097,2.69743 -3.19799,0.86207 1.307005,1.02892 0.444936,1.80756 -0.472747,1.08454 -4.365953,-0.41714 -1.446048,3.78198 0.111236,1.47386 h 1.167961 l 0.58398,0.88987 -0.736243,2.07862 h -1.57309 l -1.022512,1.73041 -0.393274,1.80906 -2.752913,1.02251 -3.932732,5.34851 0.550582,2.4383 -1.258474,3.38215 0.235963,2.83156 1.966367,2.28099 1.17982,2.20233 3.539461,3.3035 3.38215,-1.10117 1.415783,1.17982 5.977755,-1.57309 1.494438,2.04502 2.438294,-0.15731 1.337133,1.65175 -1.10117,2.67426 2.67426,4.01138 1.33713,5.0339 -1.57309,4.64063 2.35964,4.40466 2.20233,5.97775 1.49443,0.55059 5.11256,-1.33713 4.56197,-3.53947 0.78654,-2.12367 2.04503,-0.70789 0.47192,-2.12368 -0.39327,-1.33713 5.19121,-3.38215 -0.23597,-7.86546 5.8991,-9.28125 2.35964,-7.55085 -5.19121,2.20233 -0.94385,-1.96637 -8.88798,-11.95551 1.02251,-0.47192 7.00027,8.65201 1.57309,3.53946 5.0339,-3.4608 2.98888,-5.34852 -0.31462,-2.35964 -1.88771,-1.02251 -0.55059,-1.10117 -0.8652,2.12368 -1.17982,0.31462 -3.77542,-4.24736 1.17982,-0.94385 1.49444,2.20233 1.96636,0.62924 0.78655,-1.25848 1.41578,1.17982 3.93274,-1.10116 2.98887,3.06753 0.47193,-1.49444 3.85408,10.85434 0.78655,-0.31462 -1.10117,-13.92187 1.49444,2.67426 -3.1611,-11.52388 c -2.32752,-3.81899 -5.20862,-7.60108 -8.64848,-11.34591 -3.32527,-2.55563 -6.58647,-5.15931 -10.48385,-7.28586 -3.83591,-2.1128 -7.79753,-3.7542 -11.9299,-4.75525 z"
       id="path5766"
       sodipodi:nodetypes="cccccccccccccccccccccccccccccccccccccccccccccccccccccccccccccccccccccccccccccccccccccccccccccccccccccc" /><g
       id="g8254"
       clip-path="url(#clipPath8256)"><g
         inkscape:label="Clip"
         id="g8252"><path
           style="fill:#aaeeff;fill-opacity:1;stroke:#000000;stroke-width:0"
           d="m 89.86295,135.20736 -0.983184,0.55058 0.432602,0.82588 2.63493,-0.0787 2.241658,-1.02251 6.528334,-0.31462 -0.4326,2.71359 3.77543,1.45511 3.30349,1.53377 0.8652,-0.78655 -0.55058,-0.94386 1.33713,-0.62923 1.57309,0.58991 2.5956,0.35394 1.69108,0.31462 1.45511,-0.78655 2.0057,0.23597 0.1573,-4.79794 -2.35963,0.94386 -1.49444,-0.82587 -0.58991,0.74722 -1.41579,-0.66857 -1.25847,-2.75291 -1.80906,-0.11798 -0.90453,0.58991 2.67426,2.24165 v 0.90453 l -1.53377,-0.51125 -0.27529,0.82587 -1.37645,-1.45511 -1.1405,-1.49444 -0.70789,-1.84838 -1.65174,-0.7079 -1.45512,-0.94385 -0.94385,-1.25848 -0.66857,0.39328 0.0787,1.02251 0.78654,0.31462 1.1405,1.41578 0.82587,-0.0787 -0.0393,0.55059 1.65175,0.74722 -0.0393,0.51125 -1.21915,-0.66856 -0.0787,0.51125 0.62924,0.51126 -1.21915,1.2978 -0.23596,0.94386 c 0,0 -2.35964,-1.02251 -2.163,-0.94386 0.19663,0.0787 0.23596,-0.58991 0.23596,-0.58991 l 2.00569,-0.0393 0.4326,-0.55058 -0.74722,-0.98318 -1.25847,-0.66857 -1.76973,-1.45511 -0.51125,-0.8652 -0.786552,-0.35395 -1.651746,1.25848 -1.455113,-0.4326 -0.668565,0.39327 0.235966,0.70789 -1.651749,0.86521 -1.101164,0.98318 0.393271,0.82587 -0.943856,0.90453 -0.943856,0.39327 z"
           id="path7217" /></g></g><path
       style="fill:#aaeeff;fill-opacity:1;stroke:#000000;stroke-width:0"
       d="m 112.83011,126.71266 -0.82587,1.41578 -0.31462,2.163 0.94385,0.74722 1.41579,0.15731 1.37645,-0.98318 1.06184,0.0393 0.82588,0.31462 1.41578,0.11798 1.33713,-0.4326 0.15731,-0.98318 -2.51695,-1.10117 -1.33713,-0.62924 -1.41578,0.98319 -1.17982,-1.10117 0.70789,-0.39327 1.06184,0.27529 1.06183,-0.0787 -0.0786,-1.33713 -1.80906,1.02251 -1.33713,0.11799 z"
       id="path8227" /><path
       style="fill:#aaeeff;fill-opacity:1;stroke:#000000;stroke-width:0"
       d="m 122.93723,124.9036 -1.10116,2.04502 1.25847,1.49444 1.76973,1.41579 0.47193,2.28098 2.08435,0.58991 1.21915,-0.47193 -1.21915,-2.28098 c 0,0 -0.94386,-0.82588 -0.74722,-0.94386 0.19664,-0.11798 -0.35395,-0.90453 -0.35395,-0.90453 l -1.17982,-0.27529 -1.25847,-1.33713 0.47193,-0.94386 -0.51126,-0.98318 z"
       id="path8229" /><path
       style="fill:#97dc96;fill-opacity:1;stroke:#000000;stroke-width:0;stroke-opacity:0.412742"
       d="m 62.847486,186.87394 -0.867613,-3.84455 -0.786548,-1.69107 0.786548,-0.82587 1.258474,0.27529 0.471927,-2.63493 -1.061836,-4.32601 1.494438,-2.08435 -0.353947,-3.81475 -1.061839,-0.55058 -1.769729,-1.96637 -2.163003,-1.17982 -0.707892,-1.45511 -1.376456,-1.17982 -0.943856,-1.21915 0.275291,-1.17982 -0.314618,-1.02251 -0.157308,-1.2978 -1.179822,-2.20233 -0.786546,-0.39327 -0.353946,-1.29781 -0.432602,-1.80905 -0.03932,-2.08435 -2.477622,-2.47762 -0.196638,7.07892 c 0.0879,9.849 2.145997,18.98528 7.94412,26.89989 z"
       id="path11004"
       sodipodi:nodetypes="ccccccccccccccccccccccccccc" /><path
       style="fill:#97dc96;fill-opacity:1;stroke:#000000;stroke-width:0;stroke-opacity:0.412742"
       d="m 56.985301,128.28575 2.123676,-1.49444 1.966367,-2.5956 1.730402,-0.62924 1.297802,-1.49444 h 1.022512 l -1.022512,0.74722 2.595605,-0.23596 0.511254,-0.98319 -0.786548,-0.70789 1.21915,-0.98318 0.03932,-0.98318 0.668565,-0.31462 0.825876,0.78654 1.730401,-0.0786 -3.185514,1.7304 0.393274,1.2978 1.219147,0.11798 1.061839,-1.84838 -0.07865,-0.78655 2.04502,-1.88771 0.353946,-1.2978 2.556277,-2.94955 -1.258475,0.11798 1.887712,-2.32031 -2.79224,1.65175 -1.769729,0.98318 -2.320314,1.17982 3.146187,-2.39897 4.837261,-3.06753 3.736096,-0.70789 -4.247351,2.94955 0.157308,0.55058 3.067534,-1.65174 1.809057,-0.62924 0.786546,-0.98318 3.146186,-1.92704 2.870896,-0.2753 -0.471929,1.1405 -6.921609,4.01138 -2.398969,2.55628 0.47193,1.02251 5.545153,-2.87089 4.208023,-0.66857 2.359642,-0.78654 3.618113,-3.02821 1.691077,-1.06184 -0.668565,-0.8652 h -3.028204 l 0.8652,-0.74722 -1.691076,-0.27529 -1.219148,-0.66856 c -5.676244,1.99258 -1.129601,-1.04479 -16.832097,6.13506 l -5.977752,4.32601 c -4.348719,3.76165 -7.797784,8.19804 -10.893672,12.89931 z"
       id="path11006"
       sodipodi:nodetypes="ccccccccccccccccccccccccccccccccccccccccccccccccccccccc" /><path
       style="fill:#97d26e;fill-opacity:1;stroke:#000000;stroke-width:0;stroke-opacity:0.412742"
       d="m 91.003442,120.87255 -0.80621,0.68823 -0.924192,0.0197 v 0.55059 l 0.629238,0.31462 -0.84554,0.53092 0.09832,0.45226 1.651749,-0.37361 0.825873,-1.53376 0.255627,-0.4916 z"
       id="path11008" /><path
       style="fill:#97d26e;fill-opacity:1;stroke:#000000;stroke-width:0;stroke-opacity:0.412742"
       d="m 91.337724,124.62831 3.578786,-0.55058 -0.11798,-0.57025 0.668565,-0.41294 -0.07866,-0.4326 -0.825873,-0.059 -0.07865,-0.90453 -0.550582,-0.27529 -0.117983,-0.72755 -0.275291,-0.2163 0.766881,-1.04218 -1.120827,-0.0786 1.002847,-0.84554 -0.983184,0.25563 -0.629237,0.4326 -0.648901,0.27529 0.609573,-0.4326 -0.609573,-0.19664 -0.471927,0.4326 -0.235966,0.47193 0.196638,0.23597 0.550583,-0.17698 -0.07866,0.62924 0.255627,0.53092 0.47193,-0.17698 -0.452266,0.64891 0.865204,0.059 -0.117983,0.96352 -0.825873,-0.17698 -0.07866,0.19664 -0.05899,0.25563 0.393274,0.059 0.01966,0.25563 -0.432601,0.2163 -0.471927,0.0983 -0.05899,0.17697 1.101164,0.2163 0.393274,-0.0983 -0.8652,0.29496 -0.609574,0.27529 -0.550582,0.41293 z"
       id="path11010" /><path
       style="fill:#97d26e;fill-opacity:1;stroke:#000000;stroke-width:0;stroke-opacity:0.412742"
       d="m 88.15221,113.79363 c 0,0 -0.432599,0.90453 -0.452263,1.00285 -0.01966,0.0983 0.609573,0.68822 0.727554,0.70789 0.117983,0.0197 1.317466,-0.27529 1.49444,-0.29496 0.176972,-0.0196 1.376455,-0.35394 1.376455,-0.35394 l -0.03933,-0.94386 -1.120828,-0.13764 -0.648901,0.23596 -0.58991,-0.13765 0.01966,-0.31461 z"
       id="path11012" /><g
       id="g14312"
       style="fill:#ff5f5f;fill-opacity:0.783933"
       transform="matrix(0.22979025,0.12179627,-0.12179627,0.22979025,108.22838,96.137946)"><path
         style="fill:#ff5f5f;fill-opacity:0.783933;stroke:#000000;stroke-width:0;stroke-opacity:0.412742"
         d="m 27.835612,85.597734 8.42683,29.863666 7.997192,-29.845923 z"
         id="path14248"
         sodipodi:nodetypes="cccc" /><path
         style="fill:#ff5f5f;fill-opacity:0.783933;stroke:#000000;stroke-width:0;stroke-opacity:0.412742"
         d="m 27.843749,85.635262 c -0.01507,-11.144831 16.223576,-11.072413 16.438824,0"
         id="path14307"
         sodipodi:nodetypes="cc" /></g></g></svg>
