<?xml version="1.0" encoding="UTF-8" standalone="no"?>
<!-- Created with Inkscape (http://www.inkscape.org/) -->

<svg
   version="1.1"
   id="svg5406"
   width="450"
   height="auto"
   viewBox="0 0 150.66667 56"
   sodipodi:docname="logo_tugraz.svg"
   inkscape:version="1.2.1 (9c6d41e410, 2022-07-14)"
   xmlns:inkscape="http://www.inkscape.org/namespaces/inkscape"
   xmlns:sodipodi="http://sodipodi.sourceforge.net/DTD/sodipodi-0.dtd"
   xmlns="http://www.w3.org/2000/svg"
   xmlns:svg="http://www.w3.org/2000/svg">
  <defs
     id="defs5410">
    <clipPath
       clipPathUnits="userSpaceOnUse"
       id="clipPath5426">
      <path
         d="M 0,41.492 H 112.876 V 0.06 L 0,0.06 Z"
         id="path5424" />
    </clipPath>
    <clipPath
       clipPathUnits="userSpaceOnUse"
       id="clipPath5442">
      <path
         d="M 0,41.492 H 112.876 V 0.06 L 0,0.06 Z"
         id="path5440" />
    </clipPath>
  </defs>
  <sodipodi:namedview
     id="namedview5408"
     pagecolor="#ffffff"
     bordercolor="#000000"
     borderopacity="0.25"
     inkscape:showpageshadow="2"
     inkscape:pageopacity="0.0"
     inkscape:pagecheckerboard="0"
     inkscape:deskcolor="#d1d1d1"
     showgrid="false"
     inkscape:zoom="4.2142857"
     inkscape:cx="71.661017"
     inkscape:cy="28"
     inkscape:window-width="1920"
     inkscape:window-height="1129"
     inkscape:window-x="-8"
     inkscape:window-y="-8"
     inkscape:window-maximized="1"
     inkscape:current-layer="g5414">
    <inkscape:page
       x="0"
       y="0"
       id="page5412"
       width="150.66667"
       height="56" />
  </sodipodi:namedview>
  <g
     id="g5414"
     inkscape:groupmode="layer"
     inkscape:label="Page 1"
     transform="matrix(1.3333333,0,0,-1.3333333,0,56)">
    <path
       d="M 0,31.119 H 20.745 V 10.373 H 0 Z"
       style="fill:#ed1a52;fill-opacity:1;fill-rule:nonzero;stroke:none"
       id="path5416" />
    <path
       d="M 22.819,31.119 H 43.565 V 10.373 H 22.819 Z"
       style="fill:#ed1a52;fill-opacity:1;fill-rule:nonzero;stroke:none"
       id="path5418" />
    <g
       id="g5420">
      <g
         id="g5422"
         clip-path="url(#clipPath5426)">
        <path
           d="M 45.641,31.119 H 66.385 V 10.373 H 45.641 Z"
           style="fill:#ed1a52;fill-opacity:1;fill-rule:nonzero;stroke:none"
           id="path5428" />
        <path
           d="M 10.372,20.746 H 31.119 V 0.06 H 10.372 Z"
           style="fill:#ed1a52;fill-opacity:1;fill-rule:nonzero;stroke:none"
           id="path5430" />
      </g>
    </g>
    <path
       d="M 35.268,41.492 H 56.012 V 20.746 H 35.268 Z"
       style="fill:#ed1a52;fill-opacity:1;fill-rule:nonzero;stroke:none"
       id="path5432" />
    <path
       d="M 75.104,27.791 H 68.462 V 31.11 H 85.581 V 27.791 H 78.94 V 10.417 h -3.836 v 17.374"
       style="fill:#080b0a;fill-opacity:1;fill-rule:nonzero;stroke:none"
       id="path5434" />
    <g
       id="g5436">
      <g
         id="g5438"
         clip-path="url(#clipPath5442)">
        <path
           d="m 104.828,18.021 c 0,-1.247 -0.224,-2.372 -0.672,-3.375 -0.448,-1.003 -1.059,-1.856 -1.835,-2.556 -0.775,-0.703 -1.69,-1.242 -2.751,-1.621 -1.059,-0.381 -2.211,-0.571 -3.455,-0.571 -1.242,0 -2.393,0.19 -3.454,0.571 -1.06,0.379 -1.983,0.918 -2.766,1.621 -0.786,0.7 -1.398,1.553 -1.834,2.556 -0.44,1.003 -0.658,2.128 -0.658,3.375 V 31.11 h 3.838 V 18.153 c 0,-0.505 0.08,-1.036 0.244,-1.591 0.163,-0.554 0.434,-1.065 0.813,-1.533 0.378,-0.466 0.879,-0.851 1.503,-1.152 0.622,-0.301 1.393,-0.452 2.314,-0.452 0.92,0 1.693,0.151 2.316,0.452 0.623,0.301 1.125,0.686 1.503,1.152 0.378,0.468 0.648,0.979 0.812,1.533 0.163,0.555 0.245,1.086 0.245,1.591 V 31.11 h 3.837 V 18.021"
           style="fill:#080b0a;fill-opacity:1;fill-rule:nonzero;stroke:none"
           id="path5444" />
        <path
           d="m 83.257,7.566 c -0.761,0.329 -1.746,0.486 -2.534,0.486 -2.293,0 -3.561,-1.443 -3.561,-3.318 0,-1.861 1.239,-3.263 3.335,-3.263 0.535,0 0.959,0.052 1.296,0.131 V 3.987 H 79.71 V 5.43 h 3.969 V 0.5 C 82.638,0.238 81.553,0.028 80.497,0.028 c -3.181,0 -5.391,1.482 -5.391,4.576 0,3.133 2.056,4.89 5.391,4.89 1.141,0 2.041,-0.144 2.886,-0.381 L 83.257,7.566"
           style="fill:#080b0a;fill-opacity:1;fill-rule:nonzero;stroke:none"
           id="path5446" />
        <path
           d="m 85.62,6.938 h 1.676 V 5.403 h 0.028 c 0.084,0.63 0.858,1.692 1.984,1.692 0.183,0 0.381,0 0.577,-0.053 v -1.77 c -0.168,0.091 -0.506,0.144 -0.845,0.144 -1.533,0 -1.533,-1.783 -1.533,-2.752 V 0.186 H 85.62 v 6.752"
           style="fill:#080b0a;fill-opacity:1;fill-rule:nonzero;stroke:none"
           id="path5448" />
        <path
           d="m 93.587,1.312 c 0.577,0 1.027,0.237 1.322,0.604 0.31,0.38 0.395,0.865 0.395,1.39 h -0.817 c -0.843,0 -2.096,-0.131 -2.096,-1.167 0,-0.576 0.52,-0.827 1.196,-0.827 z m -2.211,5.271 c 0.731,0.315 1.718,0.512 2.52,0.512 2.209,0 3.125,-0.853 3.125,-2.846 V 3.384 c 0,-0.681 0.014,-1.193 0.028,-1.691 0.014,-0.511 0.042,-0.983 0.085,-1.507 h -1.661 c -0.071,0.353 -0.071,0.799 -0.084,1.009 h -0.03 c -0.435,-0.747 -1.38,-1.167 -2.237,-1.167 -1.28,0 -2.534,0.721 -2.534,2.006 0,1.009 0.52,1.599 1.239,1.927 0.719,0.328 1.647,0.394 2.436,0.394 h 1.041 c 0,1.087 -0.521,1.455 -1.633,1.455 -0.802,0 -1.605,-0.288 -2.237,-0.734 l -0.058,1.507"
           style="fill:#080b0a;fill-opacity:1;fill-rule:nonzero;stroke:none"
           id="path5450" />
        <path
           d="m 98.569,6.938 h 5.743 V 5.495 l -3.605,-3.946 h 3.731 V 0.186 h -6.024 v 1.429 l 3.673,3.959 h -3.518 v 1.364"
           style="fill:#080b0a;fill-opacity:1;fill-rule:nonzero;stroke:none"
           id="path5452" />
        <path
           d="m 105.965,6.911 h 6.911 V 0.06 h -6.911 z"
           style="fill:#ed1a52;fill-opacity:1;fill-rule:nonzero;stroke:none"
           id="path5454" />
      </g>
    </g>
  </g>
</svg>
